<svg height="479pt" viewBox="0 -48 479.60456 479" width="479pt" xmlns="http://www.w3.org/2000/svg"><path d="m375.605469 296.3125h8c33.539062.003906 64.164062-19.058594 78.96875-49.152344 14.808593-30.09375 11.21875-65.988281-9.253907-92.558594-20.472656-26.566406-54.265624-39.1875-87.140624-32.542968-4.324219-21.582032-18.304688-39.992188-37.929688-49.957032-19.628906-9.964843-42.742188-10.386718-62.71875-1.140624-18.078125-49.792969-73.101562-75.507813-122.898438-57.425782-49.796874 18.078125-75.507812 73.101563-57.429687 122.898438-43.621094 1.378906-78.078125 37.480468-77.421875 81.121094.652344 43.636718 36.179688 78.691406 79.824219 78.757812" fill="#a3d4f7"/><g fill="#60a2d7"><path d="m335.605469 384.3125c-13.203125.289062-26.269531-2.710938-38.023438-8.734375-9.644531-5.066406-20.429687-7.570313-31.320312-7.265625-10.894531-.304688-21.683594 2.199219-31.328125 7.265625-11.753906 6.019531-24.820313 9.023437-38.023438 8.734375-13.199218.289062-26.261718-2.714844-38.007812-8.734375-9.636719-5.066406-20.414063-7.570313-31.296875-7.265625-4.417969 0-8-3.578125-8-8 0-4.417969 3.582031-8 8-8 13.195312-.285156 26.257812 2.714844 38.007812 8.738281 9.636719 5.066407 20.414063 7.570313 31.296875 7.261719 10.886719.304688 21.675782-2.195312 31.320313-7.261719 11.753906-6.023437 24.824219-9.023437 38.03125-8.738281 13.199219-.285156 26.265625 2.714844 38.015625 8.738281 9.644531 5.066407 20.433594 7.566407 31.328125 7.261719 4.417969 0 8 3.582031 8 8 0 4.421875-3.582031 8-8 8zm0 0"/><path d="m335.605469 288.3125c-13.203125.289062-26.269531-2.710938-38.023438-8.734375-9.644531-5.066406-20.429687-7.570313-31.320312-7.265625-10.894531-.304688-21.683594 2.199219-31.328125 7.265625-11.753906 6.019531-24.820313 9.023437-38.023438 8.734375-13.199218.289062-26.261718-2.714844-38.007812-8.734375-9.636719-5.066406-20.414063-7.570313-31.296875-7.265625-4.417969 0-8-3.578125-8-8 0-4.417969 3.582031-8 8-8 13.195312-.285156 26.257812 2.714844 38.007812 8.738281 9.636719 5.066407 20.414063 7.570313 31.296875 7.261719 10.886719.304688 21.675782-2.195312 31.320313-7.261719 11.753906-6.023437 24.824219-9.023437 38.03125-8.738281 13.199219-.285156 26.265625 2.714844 38.015625 8.738281 9.644531 5.066407 20.433594 7.566407 31.328125 7.261719 4.417969 0 8 3.582031 8 8 0 4.421875-3.582031 8-8 8zm0 0"/><path d="m335.605469 240.3125c-13.203125.289062-26.269531-2.710938-38.023438-8.734375-9.644531-5.066406-20.429687-7.570313-31.320312-7.265625-10.894531-.304688-21.683594 2.199219-31.328125 7.265625-11.753906 6.019531-24.820313 9.023437-38.023438 8.734375-13.199218.289062-26.261718-2.714844-38.007812-8.734375-9.636719-5.066406-20.414063-7.570313-31.296875-7.265625-4.417969 0-8-3.578125-8-8 0-4.417969 3.582031-8 8-8 13.195312-.285156 26.257812 2.714844 38.007812 8.738281 9.636719 5.066407 20.414063 7.570313 31.296875 7.261719 10.886719.304688 21.675782-2.195312 31.320313-7.261719 11.753906-6.023437 24.824219-9.023437 38.03125-8.738281 13.199219-.285156 26.265625 2.714844 38.015625 8.738281 9.644531 5.066407 20.433594 7.566407 31.328125 7.261719 4.417969 0 8 3.582031 8 8 0 4.421875-3.582031 8-8 8zm0 0"/><path d="m335.605469 336.3125c-13.203125.289062-26.269531-2.710938-38.023438-8.734375-9.644531-5.066406-20.429687-7.570313-31.320312-7.265625-10.894531-.304688-21.683594 2.199219-31.328125 7.265625-11.753906 6.019531-24.820313 9.023437-38.023438 8.734375-13.199218.289062-26.261718-2.714844-38.007812-8.734375-9.636719-5.066406-20.414063-7.570313-31.296875-7.265625-4.417969 0-8-3.578125-8-8 0-4.417969 3.582031-8 8-8 13.195312-.285156 26.257812 2.714844 38.007812 8.738281 9.636719 5.066407 20.414063 7.570313 31.296875 7.261719 10.886719.304688 21.675782-2.195312 31.320313-7.261719 11.753906-6.023437 24.824219-9.023437 38.03125-8.738281 13.199219-.285156 26.265625 2.714844 38.015625 8.738281 9.644531 5.066407 20.433594 7.566407 31.328125 7.261719 4.417969 0 8 3.582031 8 8 0 4.421875-3.582031 8-8 8zm0 0"/></g><path d="m383.605469 112.3125c-3.832031.003906-7.660157.234375-11.464844.691406-10.328125-33.632812-41.355469-56.617187-76.535156-56.691406-8.757813-.007812-17.453125 1.445312-25.730469 4.296875-20.488281-44.300781-69.042969-68.378906-116.707031-57.871094-47.667969 10.507813-81.597657 52.765625-81.5625 101.574219.003906 8.433594 1.054687 16.835938 3.117187 25.007812-45.414062 6.933594-77.859375 47.636719-74.484375 93.453126 3.371094 45.820312 41.425781 81.335937 87.367188 81.539062 4.417969 0 8-3.578125 8-8 0-4.417969-3.582031-8-8-8-39.441407.171875-71.667969-31.441406-72.257813-70.878906-.585937-39.4375 30.683594-71.996094 70.113282-73 2.558593-.070313 4.929687-1.363282 6.375-3.476563 1.449218-2.113281 1.796874-4.789062.9375-7.203125-15.878907-45.441406 7.742187-95.203125 52.988281-111.632812 45.246093-16.429688 95.292969 6.589844 112.265625 51.632812.777344 2.089844 2.386718 3.757813 4.445312 4.609375 2.0625.851563 4.378906.804688 6.402344-.128906 8.375-3.894531 17.496094-5.914063 26.730469-5.921875 30.4375.054688 56.648437 21.496094 62.726562 51.320312.871094 4.335938 5.09375 7.140626 9.425781 6.265626 5.214844-1.046876 10.523438-1.578126 15.847657-1.585938 44.183593 0 80 35.820312 80 80 0 44.183594-35.816407 80-80 80h-8c-4.417969 0-8 3.582031-8 8 0 4.421875 3.582031 8 8 8h8c53.019531 0 96-42.980469 96-96s-42.980469-96-96-96zm0 0"/><path d="m127.605469 368.3125c10.882812-.304688 21.660156 2.199219 31.296875 7.265625 11.746094 6.019531 24.808594 9.023437 38.007812 8.734375 13.203125.289062 26.269532-2.714844 38.023438-8.734375 9.644531-5.066406 20.433594-7.570313 31.328125-7.265625 10.890625-.304688 21.675781 2.199219 31.320312 7.265625 11.753907 6.023437 24.820313 9.023437 38.023438 8.734375 4.417969 0 8-3.578125 8-8 0-4.417969-3.582031-8-8-8-10.894531.304688-21.683594-2.195312-31.328125-7.261719-11.75-6.023437-24.816406-9.023437-38.015625-8.738281-13.207031-.285156-26.277344 2.714844-38.03125 8.738281-9.644531 5.066407-20.433594 7.566407-31.320313 7.261719-10.882812.308594-21.660156-2.195312-31.296875-7.261719-11.75-6.023437-24.8125-9.023437-38.007812-8.738281-4.417969 0-8 3.582031-8 8 0 4.421875 3.582031 8 8 8zm0 0"/><path d="m127.605469 272.3125c10.882812-.304688 21.660156 2.199219 31.296875 7.265625 11.746094 6.019531 24.808594 9.023437 38.007812 8.734375 13.203125.289062 26.269532-2.714844 38.023438-8.734375 9.644531-5.066406 20.433594-7.570313 31.328125-7.265625 10.890625-.304688 21.675781 2.199219 31.320312 7.265625 11.753907 6.023437 24.820313 9.023437 38.023438 8.734375 4.417969 0 8-3.578125 8-8 0-4.417969-3.582031-8-8-8-10.894531.304688-21.683594-2.195312-31.328125-7.261719-11.75-6.023437-24.816406-9.023437-38.015625-8.738281-13.207031-.285156-26.277344 2.714844-38.03125 8.738281-9.644531 5.066407-20.433594 7.566407-31.320313 7.261719-10.882812.308594-21.660156-2.195312-31.296875-7.261719-11.75-6.023437-24.8125-9.023437-38.007812-8.738281-4.417969 0-8 3.582031-8 8 0 4.421875 3.582031 8 8 8zm0 0"/><path d="m127.605469 224.3125c10.882812-.304688 21.660156 2.199219 31.296875 7.265625 11.746094 6.019531 24.808594 9.023437 38.007812 8.734375 13.203125.289062 26.269532-2.714844 38.023438-8.734375 9.644531-5.066406 20.433594-7.570313 31.328125-7.265625 10.890625-.304688 21.675781 2.199219 31.320312 7.265625 11.753907 6.023437 24.820313 9.023437 38.023438 8.734375 4.417969 0 8-3.578125 8-8 0-4.417969-3.582031-8-8-8-10.894531.304688-21.683594-2.195312-31.328125-7.261719-11.75-6.023437-24.816406-9.023437-38.015625-8.738281-13.207031-.285156-26.277344 2.714844-38.03125 8.738281-9.644531 5.066407-20.433594 7.566407-31.320313 7.261719-10.882812.308594-21.660156-2.195312-31.296875-7.261719-11.75-6.023437-24.8125-9.023437-38.007812-8.738281-4.417969 0-8 3.582031-8 8 0 4.421875 3.582031 8 8 8zm0 0"/><path d="m127.605469 320.3125c10.882812-.304688 21.660156 2.199219 31.296875 7.265625 11.746094 6.019531 24.808594 9.023437 38.007812 8.734375 13.203125.289062 26.269532-2.714844 38.023438-8.734375 9.644531-5.066406 20.433594-7.570313 31.328125-7.265625 10.890625-.304688 21.675781 2.199219 31.320312 7.265625 11.753907 6.023437 24.820313 9.023437 38.023438 8.734375 4.417969 0 8-3.578125 8-8 0-4.417969-3.582031-8-8-8-10.894531.304688-21.683594-2.195312-31.328125-7.261719-11.75-6.023437-24.816406-9.023437-38.015625-8.738281-13.207031-.285156-26.277344 2.714844-38.03125 8.738281-9.644531 5.066407-20.433594 7.566407-31.320313 7.261719-10.882812.308594-21.660156-2.195312-31.296875-7.261719-11.75-6.023437-24.8125-9.023437-38.007812-8.738281-4.417969 0-8 3.582031-8 8 0 4.421875 3.582031 8 8 8zm0 0"/></svg>