<svg height="480pt" viewBox="0 -48 480 480" width="480pt" xmlns="http://www.w3.org/2000/svg"><path d="m72 72c22.207031 0 22.207031 32 44.40625 32 22.203125 0 22.21875-32 44.433594-32s22.214844 32 44.433594 32c22.214843 0 22.214843-32 44.429687-32 22.21875 0 22.226563 32 44.441406 32 22.214844 0 22.214844-32 44.421875-32 22.210938 0 22.226563 32 44.457032 32 22.234374 0 22.242187-32 44.488281-32 22.25 0 22.242187 32 44.488281 32v272h-400z" fill="#a3d4f7"/><path d="m72 120c22.207031 0 22.207031 32 44.40625 32 22.203125 0 22.21875-32 44.433594-32s22.214844 32 44.433594 32c22.214843 0 22.214843-32 44.429687-32 22.21875 0 22.226563 32 44.441406 32 22.214844 0 22.214844-32 44.421875-32 22.210938 0 22.226563 32 44.457032 32 22.234374 0 22.242187-32 44.488281-32 22.25 0 22.242187 32 44.488281 32v224h-400z" fill="#60a2d7"/><path d="m472 376h-232c-116 0-116-368-232-368v368" fill="#e9cfb7"/><path d="m341.664062 186.351562c-.746093-.746093-1.632812-1.335937-2.609374-1.734374-1.957032-.808594-4.152344-.808594-6.109376 0-.976562.398437-1.863281.988281-2.609374 1.734374l-32 32c-3.03125 3.140626-2.988282 8.128907.097656 11.214844 3.085937 3.085938 8.074218 3.128906 11.214844.097656l18.351562-18.351562v44.6875c0 4.417969 3.582031 8 8 8s8-3.582031 8-8v-44.6875l18.34375 18.34375c3.140625 3.03125 8.128906 2.988281 11.214844-.097656 3.085937-3.085938 3.128906-8.074219.097656-11.214844zm0 0" fill="#d0dad9"/><path d="m116.414062 112c15.289063 0 22.769532-10.777344 28.800782-19.441406 5.601562-8 9.050781-12.558594 15.648437-12.558594 6.601563 0 10.074219 4.535156 15.648438 12.558594 6.007812 8.65625 13.488281 19.441406 28.800781 19.441406s22.785156-10.785156 28.800781-19.441406c5.597657-8 9.039063-12.558594 15.640625-12.558594 6.597656 0 10.078125 4.535156 15.644532 12.558594 6.015624 8.65625 13.496093 19.441406 28.800781 19.441406 15.304687 0 22.769531-10.785156 28.800781-19.441406 5.601562-8 9.039062-12.558594 15.632812-12.558594 6.589844 0 10.085938 4.535156 15.664063 12.558594 6.015625 8.664062 13.503906 19.441406 28.800781 19.441406 15.292969 0 22.789063-10.777344 28.796875-19.433594 5.601563-8 9.058594-12.566406 15.679688-12.566406 6.625 0 10.097656 4.535156 15.671875 12.558594 5.953125 8.664062 13.449218 19.441406 28.753906 19.441406 4.417969 0 8-3.582031 8-8s-3.582031-8-8-8c-6.617188 0-10.097656-4.535156-15.671875-12.558594-6.015625-8.664062-13.503906-19.441406-28.800781-19.441406s-22.792969 10.777344-28.800782 19.441406c-5.597656 8-9.054687 12.558594-15.671874 12.558594-6.613282 0-10.085938-4.535156-15.65625-12.558594-6.015626-8.65625-13.503907-19.441406-28.796876-19.441406-15.296874 0-22.761718 10.777344-28.800781 19.441406-5.601562 8-9.039062 12.558594-15.640625 12.558594-6.601562 0-10.089844-4.535156-15.65625-12.558594-6.015625-8.664062-13.503906-19.441406-28.800781-19.441406s-22.773437 10.777344-28.800781 19.441406c-5.597656 8-9.046875 12.558594-15.644532 12.558594-6.601562 0-10.082031-4.535156-15.648437-12.558594-6.007813-8.664062-13.488281-19.441406-28.800781-19.441406s-22.777344 10.785156-28.800782 19.441406c-5.601562 8-9.039062 12.558594-15.640624 12.558594-6.597657 0-10.09375-4.527344-15.679688-12.542969-3.519531-5.628906-8.042969-10.566406-13.34375-14.5625-20.046875-40.65625-44.792969-68.894531-79.34375-68.894531-4.417969 0-8 3.582031-8 8s3.582031 8 8 8c27.59375 0 48.59375 25.414062 66.34375 62.34375 1.746094 3.632812 3.457031 7.390625 5.144531 11.25.238281.542969.480469 1.078125.71875 1.597656 1.730469 3.996094 3.429688 8.085938 5.105469 12.273438l.449219 1.09375c1.757812 4.449218 3.5 8.984375 5.222656 13.601562l.0625.167969c4.679687 12.617187 9.167969 25.855469 13.601563 39.28125 3.75 11.496094 7.464843 23.152344 11.144531 34.855469l.605469 1.910156c27.546874 87.378906 56 177.554688 112.050781 188.480469 1.871093.359375 3.765625.640625 5.703125.800781s3.855468.34375 5.847656.34375h232c4.417969 0 8-3.582031 8-8s-3.582031-8-8-8h-232c-3.195312.003906-6.382812-.34375-9.503906-1.039062-5.597656-1.308594-10.914063-3.601563-15.703125-6.777344-1.3125-.847656-2.609375-1.75-3.890625-2.726563-2.066406-1.558593-4.050782-3.230469-5.941406-5-31.328126-29.601562-52.59375-97.082031-73.328126-162.863281-3.113281-9.867188-6.234374-19.761719-9.410156-29.601562l-.167968-.535157c9.960937-2.902343 18.3125-9.726562 23.136718-18.914062 5.601563-8 9.046875-12.558594 15.648438-12.558594 6.601562 0 10.070312 4.535156 15.648437 12.558594 6.007813 8.65625 13.488281 19.441406 28.800781 19.441406s22.78125-10.785156 28.800782-19.441406c5.597656-8 9.039062-12.558594 15.636718-12.558594 6.601563 0 10.082032 4.535156 15.648438 12.558594 6.015625 8.65625 13.496094 19.441406 28.800781 19.441406 15.304688 0 22.769531-10.785156 28.800781-19.441406 5.597657-8 9.039063-12.558594 15.632813-12.558594 6.589844 0 10.085937 4.535156 15.664063 12.558594 6.015624 8.664062 13.503906 19.441406 28.796874 19.441406 15.296876 0 22.792969-10.777344 28.800782-19.433594 5.601562-8 9.058594-12.566406 15.679687-12.566406 6.625 0 10.097657 4.535156 15.671875 12.558594 5.976563 8.679687 13.472656 19.457031 28.777344 19.457031 4.417969 0 8-3.582031 8-8s-3.582031-8-8-8c-6.617188 0-10.097656-4.535156-15.671875-12.558594-6.015625-8.664062-13.503906-19.441406-28.800781-19.441406s-22.792969 10.777344-28.800782 19.441406c-5.597656 8-9.054687 12.558594-15.671874 12.558594-6.613282 0-10.085938-4.535156-15.65625-12.558594-6.015626-8.65625-13.503907-19.441406-28.796876-19.441406-15.296874 0-22.761718 10.777344-28.800781 19.441406-5.601562 8-9.039062 12.558594-15.640625 12.558594-6.601562 0-10.089844-4.535156-15.65625-12.558594-6.015625-8.664062-13.503906-19.441406-28.800781-19.441406s-22.773437 10.777344-28.800781 19.441406c-5.597656 8-9.046875 12.558594-15.644532 12.558594-6.601562 0-10.082031-4.535156-15.648437-12.558594-6.007813-8.664062-13.488281-19.441406-28.800781-19.441406s-22.777344 10.785156-28.800782 19.441406c-5.40625 7.78125-8.886718 12.199219-15.113281 12.460938-3.6875-11.03125-7.460937-21.863282-11.382812-32.335938-.246094-.65625-.480469-1.351562-.726563-2.007812 3.648438 1.660156 7.621094 2.492187 11.628906 2.441406zm0 0"/><path d="m336 264c4.417969 0 8-3.582031 8-8v-44.6875l18.34375 18.34375c3.140625 3.03125 8.128906 2.988281 11.214844-.097656 3.085937-3.085938 3.128906-8.074219.097656-11.214844l-32-32c-.746094-.746094-1.632812-1.335938-2.609375-1.734375-1.957031-.808594-4.152344-.808594-6.109375 0-.976562.398437-1.863281.988281-2.609375 1.734375l-32 32c-3.03125 3.140625-2.988281 8.128906.097656 11.214844 3.085938 3.085937 8.074219 3.128906 11.214844.097656l18.359375-18.34375v44.6875c0 4.417969 3.582031 8 8 8zm0 0"/></svg>