<svg height="480pt" viewBox="0 -48 480.03918 480" width="480pt" xmlns="http://www.w3.org/2000/svg"><path d="m239.988281 8.019531c-114.875 0-208 93.125-208 208v80h96v-80c0-61.855469 50.144531-112 112-112 61.859375 0 112 50.144531 112 112v80h96v-80c0-114.875-93.125-208-208-208zm0 0" fill="#ff5b42"/><path d="m239.988281 40.019531c-97.199219 0-176 78.796875-176 176v80h64v-80c0-61.855469 50.144531-112 112-112 61.859375 0 112 50.144531 112 112v80h64v-80c0-97.203125-78.796875-176-176-176zm0 0" fill="#fce666"/><path d="m239.988281 72.019531c-79.527343 0-144 64.472657-144 144v80h32v-80c0-61.855469 50.144531-112 112-112 61.859375 0 112 50.144531 112 112v80h32v-80c0-79.527343-64.46875-144-144-144zm0 0" fill="#60a2d7"/><g fill="#a3d4f7"><path d="m7.988281 336.90625c.09375 21.695312 17.753907 39.207031 39.449219 39.113281h132.6875c19.417969 0 35.238281-15.589843 35.53125-35.003906.289062-19.414063-15.058594-35.46875-34.464844-36.050781 1.660156-4.578125 2.515625-9.410156 2.527344-14.28125-.183594-20.730469-15.113281-38.386719-35.523438-42.015625-20.410156-3.628907-40.507812 7.796875-47.828124 27.191406-8.933594-4.101563-19.246094-3.917969-28.027344.5-8.777344 4.417969-15.070313 12.59375-17.09375 22.210937-2.570313-.523437-5.183594-.789062-7.808594-.796874-21.703125-.09375-39.367188 17.429687-39.449219 39.132812zm0 0"/><path d="m180.132812 384.019531h-132.695312c-17.160156.105469-33.019531-9.128906-41.402344-24.101562-8.382812-14.972657-7.960937-33.316407 1.097656-47.890625 9.054688-14.574219 25.320313-23.070313 42.457032-22.183594 6.257812-15.085938 20.980468-24.925781 37.3125-24.9375 3.125 0 6.238281.367188 9.28125 1.089844 11.367187-20.148438 34.855468-30.140625 57.257812-24.355469 22.398438 5.789063 38.109375 25.910156 38.292969 49.042969-.003906 2.550781-.203125 5.101562-.59375 7.625 21.351563 5.394531 35.308594 25.890625 32.503906 47.734375-2.804687 21.847656-21.488281 38.152343-43.511719 37.976562zm-132.695312-78.222656c-17.183594 0-31.113281 13.929687-31.113281 31.109375 0 17.183594 13.929687 31.113281 31.113281 31.113281h132.695312c15.113282.085938 27.46875-12.023437 27.6875-27.136719.222657-15.109374-11.777343-27.574218-26.886718-27.925781-2.558594-.078125-4.929688-1.375-6.375-3.488281-1.441406-2.117188-1.785156-4.796875-.921875-7.210938 1.351562-3.707031 2.046875-7.625 2.058593-11.574218-.207031-16.851563-12.371093-31.171875-28.964843-34.105469s-32.925781 6.347656-38.902344 22.105469c-.777344 2.078125-2.382813 3.738281-4.433594 4.589844-2.050781.847656-4.363281.804687-6.378906-.117188-6.710937-3.09375-14.464844-2.964844-21.066406.347656-6.605469 3.3125-11.34375 9.449219-12.878907 16.675782-.878906 4.320312-5.09375 7.117187-9.417968 6.246093-2.046875-.410156-4.125-.621093-6.214844-.628906zm0 0"/><path d="m432.542969 297.796875c-2.625.007813-5.238281.277344-7.808594.796875-2.023437-9.617188-8.316406-17.789062-17.097656-22.210938-8.777344-4.417968-19.089844-4.601562-28.023438-.5-7.320312-19.394531-27.417969-30.820312-47.828125-27.191406s-35.339844 21.285156-35.523437 42.015625c.011719 4.871094.867187 9.703125 2.527343 14.28125-19.191406.863281-34.21875 16.824219-33.933593 36.03125.289062 19.207031 15.789062 34.710938 35 35h132.6875c21.601562 0 39.109375-17.511719 39.109375-39.113281s-17.507813-39.109375-39.109375-39.109375zm0 0"/><path d="m432.542969 384.019531h-132.695313c-22.019531.164063-40.695312-16.140625-43.496094-37.984375-2.800781-21.839844 11.152344-42.332031 32.503907-47.726562-2.265625-14.667969 2.027343-29.589844 11.742187-40.8125 9.710938-11.222656 23.863282-17.613282 38.703125-17.476563 18.425781.042969 35.414063 9.957031 44.511719 25.976563 3.042969-.722656 6.15625-1.089844 9.28125-1.089844 16.328125.019531 31.039062 9.855469 37.296875 24.9375 17.136719-.886719 33.398437 7.609375 42.457031 22.183594 9.058594 14.574218 9.476563 32.917968 1.09375 47.890625-8.382812 14.972656-24.242187 24.207031-41.398437 24.101562zm-93.242188-128c-19.238281-.078125-34.910156 15.425781-35.039062 34.664063.011719 3.949218.707031 7.867187 2.054687 11.574218l3.722656 10.402344-11.015624.320313c-15.109376.351562-27.109376 12.816406-26.890626 27.925781.222657 15.113281 12.578126 27.222656 27.6875 27.136719h132.722657c17.179687 0 31.109375-13.929688 31.109375-31.113281 0-17.179688-13.929688-31.109376-31.109375-31.109376-2.097657 0-4.1875.207032-6.242188.617188l-7.824219 1.597656-1.597656-7.816406c-1.535156-7.226562-6.273437-13.363281-12.878906-16.675781s-14.355469-3.4375-21.066406-.347657l-7.800782 3.578126-3.015624-8.050782c-5.175782-13.636718-18.230469-22.664062-32.816407-22.703125zm0 0"/></g><path d="m47.4375 384.019531h132.695312c22.019532.164063 40.695313-16.140625 43.496094-37.984375 2.800782-21.839844-11.152344-42.332031-32.503906-47.726562 2.265625-14.667969-2.027344-29.589844-11.742188-40.8125-9.710937-11.222656-23.863281-17.613282-38.703124-17.476563-1.601563 0-3.136719.175781-4.691407.320313v-24.320313c0-57.4375 46.5625-104 104-104s104 46.5625 104 104v24.320313c-1.550781-.144532-3.101562-.320313-4.6875-.320313-14.839843-.136719-28.992187 6.253907-38.703125 17.476563-9.714844 11.222656-14.007812 26.144531-11.742187 40.8125-21.351563 5.394531-35.304688 25.886718-32.503907 47.726562 2.800782 21.84375 21.476563 38.148438 43.496094 37.984375h132.695313c21.480469.230469 40.382812-14.132812 45.910156-34.890625 5.53125-20.757812-3.714844-42.621094-22.464844-53.109375v-80c0-119.292969-96.703125-215.9999998-216-215.9999998-119.292969 0-216 96.7070308-216 215.9999998v80h.105469c-18.757812 10.460938-28.03125 32.3125-22.523438 53.070313 5.507813 20.761718 24.390626 35.140625 45.867188 34.929687zm192.550781-288c-66.242187.074219-119.921875 53.757813-120 120v28.457031c-5.992187 2.65625-11.421875 6.433594-16 11.128907v-39.585938c0-75.109375 60.890625-136 136-136 75.113281 0 136 60.890625 136 136v39.585938c-4.574219-4.695313-10.003906-8.472657-16-11.128907v-28.457031c-.074219-66.242187-53.753906-119.925781-120-120zm168 171.855469c-4.730469-1.929688-9.785156-2.9375-14.894531-2.96875-.375 0-.734375.058594-1.105469.066406v-48.953125c0-83.945312-68.050781-152-152-152-83.945312 0-152 68.054688-152 152v48.953125c-.367187 0-.726562-.066406-1.101562-.066406-5.109375.03125-10.167969 1.039062-14.898438 2.96875v-51.855469c0-92.785156 75.21875-168 168-168 92.785157 0 168 75.214844 168 168zm24.554688 100.144531h-132.695313c-15.113281.085938-27.46875-12.023437-27.6875-27.136719-.222656-15.109374 11.777344-27.574218 26.886719-27.925781 2.558594-.078125 4.929687-1.375 6.375-3.488281 1.441406-2.117188 1.785156-4.796875.921875-7.210938-1.351562-3.707031-2.046875-7.625-2.058594-11.574218.207032-16.851563 12.371094-31.171875 28.964844-34.105469s32.925781 6.347656 38.898438 22.105469c.78125 2.078125 2.386718 3.738281 4.4375 4.589844 2.050781.847656 4.359374.804687 6.378906-.117188 6.710937-3.09375 14.464844-2.964844 21.066406.347656 6.605469 3.3125 11.34375 9.449219 12.878906 16.675782.878906 4.320312 5.089844 7.117187 9.414063 6.246093 2.058593-.40625 4.148437-.613281 6.242187-.613281 17.183594 0 31.113282 13.929688 31.113282 31.109375 0 17.183594-13.929688 31.113281-31.113282 31.113281zm-392.554688-152c0-110.457031 89.542969-200 200-200s200 89.542969 200 200v74.398438c-3.171875-.503907-6.386719-.695313-9.597656-.566407-1.574219-3.816406-3.734375-7.363281-6.402344-10.511718v-63.320313c0-101.621093-82.378906-184-184-184-101.617187 0-184 82.378907-184 184v63.3125c-2.667969 3.148438-4.824219 6.695313-6.398437 10.511719-3.210938-.128906-6.425782.0625-9.601563.574219zm7.449219 89.777344c2.09375 0 4.183594.207031 6.242188.613281 4.324218.871094 8.535156-1.925781 9.414062-6.246094 1.535156-7.226562 6.273438-13.363281 12.878906-16.675781 6.601563-3.3125 14.355469-3.441406 21.066406-.347656 2.015626.921875 4.328126.964844 6.378907.113281 2.050781-.847656 3.65625-2.507812 4.4375-4.585937 5.972656-15.757813 22.304687-25.039063 38.898437-22.105469s28.757813 17.253906 28.964844 34.105469c-.011719 3.949219-.707031 7.863281-2.058594 11.574219-.863281 2.414062-.519531 5.09375.921875 7.207031 1.445313 2.117187 3.816407 3.414062 6.375 3.492187 15.109375.351563 27.109375 12.816406 26.886719 27.925782-.21875 15.109374-12.574219 27.222656-27.6875 27.136718h-132.71875c-17.183594 0-31.113281-13.929687-31.113281-31.113281s13.929687-31.109375 31.113281-31.109375zm0 0"/></svg>