<svg height="480pt" viewBox="0 -104 480 480" width="480pt" xmlns="http://www.w3.org/2000/svg"><path d="m240 8c-128.128906 0-232 103.871094-232 232v24h96v-24c0-75.109375 60.890625-136 136-136s136 60.890625 136 136v24h96v-24c0-128.128906-103.871094-232-232-232zm0 0" fill="#ff5b42"/><path d="m240 40c-110.457031 0-200 89.542969-200 200v24h64v-24c0-75.109375 60.890625-136 136-136s136 60.890625 136 136v24h64v-24c0-110.457031-89.542969-200-200-200zm0 0" fill="#fce666"/><path d="m240 72c-92.785156 0-168 75.214844-168 168v24h32v-24c0-75.109375 60.890625-136 136-136s136 60.890625 136 136v24h32v-24c0-92.785156-75.214844-168-168-168zm0 0" fill="#60a2d7"/><path d="m240 0c-132.484375.148438-239.851562 107.515625-240 240v24c0 4.417969 3.582031 8 8 8h96c4.417969 0 8-3.582031 8-8v-24c0-70.691406 57.308594-128 128-128s128 57.308594 128 128v24c0 4.417969 3.582031 8 8 8h96c4.417969 0 8-3.582031 8-8v-24c-.148438-132.484375-107.515625-239.851562-240-240zm144 256v-16c0-79.527344-64.472656-144-144-144s-144 64.472656-144 144v16h-16v-16c0-88.367188 71.632812-160 160-160s160 71.632812 160 160v16zm32 0v-16c0-97.203125-78.796875-176-176-176s-176 78.796875-176 176v16h-16v-16c0-106.039062 85.960938-192 192-192s192 85.960938 192 192v16zm48 0h-16v-16c0-114.875-93.125-208-208-208s-208 93.125-208 208v16h-16v-16c0-123.710938 100.289062-224 224-224s224 100.289062 224 224zm0 0"/></svg>