<svg height="479pt" viewBox="0 -16 479.99951 479" width="479pt" xmlns="http://www.w3.org/2000/svg"><g fill="#fdd020"><path d="m392 160.597656c-3.234375 0-6.148438-1.949218-7.386719-4.9375-1.238281-2.988281-.554687-6.429687 1.730469-8.71875l48-48c3.140625-3.03125 8.128906-2.988281 11.214844.097656 3.085937 3.085938 3.128906 8.074219.097656 11.214844l-48 48c-1.5 1.5-3.535156 2.34375-5.65625 2.34375zm0 0"/><path d="m256 296.597656c-3.234375 0-6.148438-1.949218-7.386719-4.9375-1.238281-2.988281-.554687-6.429687 1.730469-8.71875l112-112c3.140625-3.03125 8.128906-2.988281 11.214844.097656 3.085937 3.085938 3.128906 8.074219.097656 11.214844l-112 112c-1.5 1.5-3.535156 2.34375-5.65625 2.34375zm0 0"/><path d="m312 152.597656c-3.234375 0-6.148438-1.949218-7.386719-4.9375-1.238281-2.988281-.554687-6.429687 1.730469-8.71875l48-48c3.140625-3.03125 8.128906-2.988281 11.214844.097656 3.085937 3.085938 3.128906 8.074219.097656 11.214844l-48 48c-1.5 1.5-3.535156 2.34375-5.65625 2.34375zm0 0"/><path d="m176 288.597656c-3.234375 0-6.148438-1.949218-7.386719-4.9375-1.238281-2.988281-.554687-6.429687 1.730469-8.71875l112-112c3.140625-3.03125 8.128906-2.988281 11.214844.097656 3.085937 3.085938 3.128906 8.074219.097656 11.214844l-112 112c-1.5 1.5-3.535156 2.34375-5.65625 2.34375zm0 0"/></g><path d="m104 410.535156 59.328125 30.0625-11.328125-63.679687 48-45.097657-66.335938-9.285156-29.664062-57.9375-29.664062 57.9375-66.335938 9.285156 48 45.097657-11.328125 63.679687zm0 0" fill="#ffde3d"/><path d="m477.65625 146.941406c-3.121094-3.121094-8.1875-3.121094-11.3125 0l-208 208c-2.078125 2.007813-2.914062 4.984375-2.179688 7.78125.730469 2.796875 2.917969 4.980469 5.714844 5.714844 2.796875.730469 5.769532-.105469 7.777344-2.183594l208-208c3.125-3.125 3.125-8.1875 0-11.3125zm0 0" fill="#fdd020"/><path d="m160 224.597656c-3.234375 0-6.148438-1.949218-7.386719-4.9375-1.238281-2.988281-.554687-6.429687 1.730469-8.71875l208-208c2.011719-2.078125 4.984375-2.9140622 7.78125-2.179687 2.796875.730469 4.980469 2.914062 5.714844 5.710937.730468 2.796875-.101563 5.773438-2.183594 7.78125l-208 208c-1.5 1.5-3.535156 2.34375-5.65625 2.34375zm0 0" fill="#fdd020"/><path d="m434.34375 98.941406-48 48c-2.078125 2.007813-2.914062 4.984375-2.179688 7.78125.730469 2.796875 2.917969 4.980469 5.714844 5.714844 2.796875.730469 5.769532-.105469 7.777344-2.183594l48-48c3.03125-3.140625 2.988281-8.128906-.097656-11.214844-3.085938-3.085937-8.074219-3.128906-11.214844-.097656zm0 0"/><path d="m261.65625 294.253906 112-112c3.03125-3.140625 2.988281-8.128906-.097656-11.214844-3.085938-3.085937-8.074219-3.128906-11.214844-.097656l-112 112c-2.078125 2.007813-2.914062 4.984375-2.179688 7.78125.730469 2.796875 2.917969 4.980469 5.714844 5.714844 2.796875.730469 5.769532-.105469 7.777344-2.183594zm0 0"/><path d="m354.34375 90.941406-48 48c-2.078125 2.007813-2.914062 4.984375-2.179688 7.78125.730469 2.796875 2.917969 4.980469 5.714844 5.714844 2.796875.730469 5.769532-.105469 7.777344-2.183594l48-48c3.03125-3.140625 2.988281-8.128906-.097656-11.214844-3.085938-3.085937-8.074219-3.128906-11.214844-.097656zm0 0"/><path d="m282.34375 162.941406-112 112c-2.078125 2.007813-2.914062 4.984375-2.179688 7.78125.730469 2.796875 2.917969 4.980469 5.714844 5.714844 2.796875.730469 5.769532-.105469 7.777344-2.183594l112-112c3.03125-3.140625 2.988281-8.128906-.097656-11.214844-3.085938-3.085937-8.074219-3.128906-11.214844-.097656zm0 0"/><path d="m201.113281 323.902344-62.222656-8.710938-27.769531-54.242187c-1.507813-2.488281-4.210938-4.007813-7.121094-4.007813s-5.609375 1.519532-7.117188 4.007813l-27.769531 54.242187-62.222656 8.710938c-3.050781.425781-5.582031 2.566406-6.515625 5.5-.929688 2.933594-.097656 6.144531 2.144531 8.25l44.851563 42.144531-10.570313 59.402344c-.527343 2.984375.671875 6.011719 3.105469 7.816406 2.433594 1.808594 5.679688 2.085937 8.382812.71875l55.710938-28.230469 55.714844 28.230469c2.703125 1.375 5.953125 1.097656 8.390625-.710937 2.429687-1.8125 3.628906-4.839844 3.097656-7.824219l-10.570313-59.402344 44.847657-42.125c2.242187-2.109375 3.078125-5.320313 2.148437-8.253906-.933594-2.933594-3.46875-5.074219-6.515625-5.5zm-54.59375 47.199218c-1.957031 1.84375-2.859375 4.550782-2.398437 7.199219l8.519531 47.898438-45.023437-22.808594c-2.261719-1.152344-4.9375-1.152344-7.199219 0l-45.058594 22.808594 8.515625-47.898438c.460938-2.648437-.441406-5.355469-2.402344-7.199219l-35.824218-33.703124 49.800781-6.976563c2.578125-.359375 4.820312-1.953125 6.007812-4.273437l22.542969-44 22.546875 44c1.1875 2.320312 3.429687 3.914062 6.007813 4.273437l49.796874 6.976563zm0 0"/><path d="m466.34375 146.941406-208 208c-2.078125 2.007813-2.914062 4.984375-2.179688 7.78125.730469 2.796875 2.917969 4.980469 5.714844 5.714844 2.796875.730469 5.769532-.105469 7.777344-2.183594l208-208c3.03125-3.140625 2.988281-8.128906-.097656-11.214844-3.085938-3.085937-8.074219-3.128906-11.214844-.097656zm0 0"/><path d="m373.65625 2.941406c-3.121094-3.121094-8.1875-3.121094-11.3125 0l-208 208c-2.078125 2.007813-2.914062 4.984375-2.179688 7.78125.730469 2.796875 2.917969 4.980469 5.714844 5.714844 2.796875.730469 5.769532-.105469 7.777344-2.183594l208-208c3.125-3.125 3.125-8.1875 0-11.3125zm0 0"/></svg>