<svg height="479pt" viewBox="0 -8 479.96515 479" width="479pt" xmlns="http://www.w3.org/2000/svg"><path d="m239.976562 379.59375 143.382813 76.527344-27.382813-162.085938 116-114.792968-160.3125-23.648438-71.6875-147.472656-71.6875 147.472656-160.3125 23.648438 116 114.792968-27.382812 162.085938zm0 0" fill="#ffde3d"/><path d="m479.574219 176.753906c-.9375-2.871094-3.414063-4.96875-6.398438-5.425781l-156.160156-23.03125-69.839844-143.671875c-1.492187-2.5625-4.234375-4.140625-7.199219-4.140625-2.96875 0-5.710937 1.578125-7.199218 4.140625l-69.839844 143.671875-156.128906 23.023437c-2.996094.453126-5.476563 2.554688-6.414063 5.433594s-.171875 6.039063 1.980469 8.167969l113.015625 111.871094-26.6875 157.992187c-.507813 3.007813.738281 6.042969 3.214844 7.828125 2.476562 1.78125 5.75 2 8.441406.5625l139.617187-74.519531 139.617188 74.519531c2.691406 1.4375 5.964844 1.21875 8.441406-.5625 2.476563-1.785156 3.722656-4.820312 3.210938-7.828125l-26.6875-157.992187 113.015625-111.871094c2.160156-2.125 2.933593-5.285156 2-8.167969zm-129.199219 111.589844c-1.847656 1.835938-2.6875 4.453125-2.253906 7.019531l24.65625 146.03125-129.035156-68.855469c-2.351563-1.257812-5.179688-1.257812-7.535157 0l-129.03125 68.855469 24.671875-146.03125c.433594-2.566406-.40625-5.183593-2.253906-7.019531l-104.609375-103.527344 144.472656-21.3125c2.613281-.386718 4.867188-2.039062 6.023438-4.414062l64.496093-132.671875 64.496094 132.671875c1.15625 2.375 3.410156 4.027344 6.023438 4.414062l144.472656 21.3125zm0 0"/></svg>