<svg height="480pt" viewBox="-148 0 480 480" width="480pt" xmlns="http://www.w3.org/2000/svg"><path d="m96 368v-328c0-17.671875-14.328125-32-32-32s-32 14.328125-32 32v328c-15.109375 11.332031-24 29.113281-24 48 0 30.929688 25.070312 56 56 56s56-25.070312 56-56c0-18.886719-8.890625-36.667969-24-48zm0 0" fill="#a3d4f7"/><g fill="#92aeba"><path d="m176 344h-48c-4.417969 0-8-3.582031-8-8s3.582031-8 8-8h48c4.417969 0 8 3.582031 8 8s-3.582031 8-8 8zm0 0"/><path d="m160 312h-32c-4.417969 0-8-3.582031-8-8s3.582031-8 8-8h32c4.417969 0 8 3.582031 8 8s-3.582031 8-8 8zm0 0"/><path d="m176 280h-48c-4.417969 0-8-3.582031-8-8s3.582031-8 8-8h48c4.417969 0 8 3.582031 8 8s-3.582031 8-8 8zm0 0"/><path d="m160 248h-32c-4.417969 0-8-3.582031-8-8s3.582031-8 8-8h32c4.417969 0 8 3.582031 8 8s-3.582031 8-8 8zm0 0"/><path d="m176 216h-48c-4.417969 0-8-3.582031-8-8s3.582031-8 8-8h48c4.417969 0 8 3.582031 8 8s-3.582031 8-8 8zm0 0"/><path d="m160 184h-32c-4.417969 0-8-3.582031-8-8s3.582031-8 8-8h32c4.417969 0 8 3.582031 8 8s-3.582031 8-8 8zm0 0"/><path d="m176 152h-48c-4.417969 0-8-3.582031-8-8s3.582031-8 8-8h48c4.417969 0 8 3.582031 8 8s-3.582031 8-8 8zm0 0"/><path d="m160 120h-32c-4.417969 0-8-3.582031-8-8s3.582031-8 8-8h32c4.417969 0 8 3.582031 8 8s-3.582031 8-8 8zm0 0"/><path d="m176 88h-48c-4.417969 0-8-3.582031-8-8s3.582031-8 8-8h48c4.417969 0 8 3.582031 8 8s-3.582031 8-8 8zm0 0"/></g><path d="m72 385.015625v-41.015625c0-4.417969-3.582031-8-8-8s-8 3.582031-8 8v41.015625c-14.175781 3.050781-24.222656 15.6875-24 30.183594 0 17.675781 14.328125 32 32 32s32-14.324219 32-32c.222656-14.496094-9.824219-27.132813-24-30.183594zm0 0" fill="#ff5b42"/><path d="m104 364.097656v-324.097656c0-22.089844-17.910156-40-40-40s-40 17.910156-40 40v324.097656c-15.238281 12.929688-24.015625 31.914063-24 51.902344 0 35.347656 28.652344 64 64 64s64-28.652344 64-64c.015625-19.988281-8.761719-38.972656-24-51.902344zm-40 99.902344c-26.5-.027344-47.972656-21.5-48-48-.0625-16.226562 7.507812-31.539062 20.441406-41.34375l3.558594-2.398438v-332.257812c0-13.253906 10.746094-24 24-24s24 10.746094 24 24v332.28125l3.558594 2.398438c12.902344 9.820312 20.464844 25.109374 20.441406 41.320312-.027344 26.5-21.5 47.972656-48 48zm0 0"/><path d="m176 328h-48c-4.417969 0-8 3.582031-8 8s3.582031 8 8 8h48c4.417969 0 8-3.582031 8-8s-3.582031-8-8-8zm0 0"/><path d="m128 312h32c4.417969 0 8-3.582031 8-8s-3.582031-8-8-8h-32c-4.417969 0-8 3.582031-8 8s3.582031 8 8 8zm0 0"/><path d="m176 264h-48c-4.417969 0-8 3.582031-8 8s3.582031 8 8 8h48c4.417969 0 8-3.582031 8-8s-3.582031-8-8-8zm0 0"/><path d="m128 248h32c4.417969 0 8-3.582031 8-8s-3.582031-8-8-8h-32c-4.417969 0-8 3.582031-8 8s3.582031 8 8 8zm0 0"/><path d="m176 200h-48c-4.417969 0-8 3.582031-8 8s3.582031 8 8 8h48c4.417969 0 8-3.582031 8-8s-3.582031-8-8-8zm0 0"/><path d="m128 184h32c4.417969 0 8-3.582031 8-8s-3.582031-8-8-8h-32c-4.417969 0-8 3.582031-8 8s3.582031 8 8 8zm0 0"/><path d="m176 136h-48c-4.417969 0-8 3.582031-8 8s3.582031 8 8 8h48c4.417969 0 8-3.582031 8-8s-3.582031-8-8-8zm0 0"/><path d="m128 120h32c4.417969 0 8-3.582031 8-8s-3.582031-8-8-8h-32c-4.417969 0-8 3.582031-8 8s3.582031 8 8 8zm0 0"/><path d="m176 72h-48c-4.417969 0-8 3.582031-8 8s3.582031 8 8 8h48c4.417969 0 8-3.582031 8-8s-3.582031-8-8-8zm0 0"/><path d="m72 385.015625v-41.015625c0-4.417969-3.582031-8-8-8s-8 3.582031-8 8v41.015625c-14.175781 3.050781-24.222656 15.6875-24 30.183594 0 17.675781 14.328125 32 32 32s32-14.324219 32-32c.222656-14.496094-9.824219-27.132813-24-30.183594zm-8 46.984375c-9.046875-.246094-16.195312-7.75-16-16.800781 0-8.835938 7.164062-16 16-16s16 7.164062 16 16c.195312 9.050781-6.953125 16.554687-16 16.800781zm0 0"/></svg>