<svg height="480pt" viewBox="-148 0 480 480" width="480pt" xmlns="http://www.w3.org/2000/svg"><path d="m96 368v-328c0-17.671875-14.328125-32-32-32s-32 14.328125-32 32v328c-15.109375 11.332031-24 29.113281-24 48 0 30.929688 25.070312 56 56 56s56-25.070312 56-56c0-18.886719-8.890625-36.667969-24-48zm0 0" fill="#a3d4f7"/><g fill="#92aeba"><path d="m176 344h-48c-4.417969 0-8-3.582031-8-8s3.582031-8 8-8h48c4.417969 0 8 3.582031 8 8s-3.582031 8-8 8zm0 0"/><path d="m160 312h-32c-4.417969 0-8-3.582031-8-8s3.582031-8 8-8h32c4.417969 0 8 3.582031 8 8s-3.582031 8-8 8zm0 0"/><path d="m176 280h-48c-4.417969 0-8-3.582031-8-8s3.582031-8 8-8h48c4.417969 0 8 3.582031 8 8s-3.582031 8-8 8zm0 0"/><path d="m160 248h-32c-4.417969 0-8-3.582031-8-8s3.582031-8 8-8h32c4.417969 0 8 3.582031 8 8s-3.582031 8-8 8zm0 0"/><path d="m176 216h-48c-4.417969 0-8-3.582031-8-8s3.582031-8 8-8h48c4.417969 0 8 3.582031 8 8s-3.582031 8-8 8zm0 0"/><path d="m160 184h-32c-4.417969 0-8-3.582031-8-8s3.582031-8 8-8h32c4.417969 0 8 3.582031 8 8s-3.582031 8-8 8zm0 0"/><path d="m176 152h-48c-4.417969 0-8-3.582031-8-8s3.582031-8 8-8h48c4.417969 0 8 3.582031 8 8s-3.582031 8-8 8zm0 0"/><path d="m160 120h-32c-4.417969 0-8-3.582031-8-8s3.582031-8 8-8h32c4.417969 0 8 3.582031 8 8s-3.582031 8-8 8zm0 0"/><path d="m176 88h-48c-4.417969 0-8-3.582031-8-8s3.582031-8 8-8h48c4.417969 0 8 3.582031 8 8s-3.582031 8-8 8zm0 0"/></g><path d="m72 385.015625v-185.015625c0-4.417969-3.582031-8-8-8s-8 3.582031-8 8v185.015625c-14.175781 3.050781-24.222656 15.6875-24 30.183594 0 17.675781 14.328125 32 32 32s32-14.324219 32-32c.222656-14.496094-9.824219-27.132813-24-30.183594zm0 0" fill="#ff5b42"/><path d="m64 480c35.328125-.039062 63.960938-28.671875 64-64 .015625-19.988281-8.761719-38.972656-24-51.902344v-324.097656c0-22.089844-17.910156-40-40-40s-40 17.910156-40 40v324.097656c-15.238281 12.929688-24.015625 31.914063-24 51.902344.0390625 35.328125 28.671875 63.960938 64 64zm-27.558594-105.34375 3.558594-2.398438v-332.257812c0-13.253906 10.746094-24 24-24s24 10.746094 24 24v332.28125l3.558594 2.398438c12.902344 9.820312 20.464844 25.109374 20.441406 41.320312 0 26.507812-21.492188 48-48 48s-48-21.492188-48-48c-.0625-16.226562 7.507812-31.539062 20.441406-41.34375zm0 0"/><path d="m176 328h-48c-4.417969 0-8 3.582031-8 8s3.582031 8 8 8h48c4.417969 0 8-3.582031 8-8s-3.582031-8-8-8zm0 0"/><path d="m128 312h32c4.417969 0 8-3.582031 8-8s-3.582031-8-8-8h-32c-4.417969 0-8 3.582031-8 8s3.582031 8 8 8zm0 0"/><path d="m176 264h-48c-4.417969 0-8 3.582031-8 8s3.582031 8 8 8h48c4.417969 0 8-3.582031 8-8s-3.582031-8-8-8zm0 0"/><path d="m128 248h32c4.417969 0 8-3.582031 8-8s-3.582031-8-8-8h-32c-4.417969 0-8 3.582031-8 8s3.582031 8 8 8zm0 0"/><path d="m176 200h-48c-4.417969 0-8 3.582031-8 8s3.582031 8 8 8h48c4.417969 0 8-3.582031 8-8s-3.582031-8-8-8zm0 0"/><path d="m128 184h32c4.417969 0 8-3.582031 8-8s-3.582031-8-8-8h-32c-4.417969 0-8 3.582031-8 8s3.582031 8 8 8zm0 0"/><path d="m176 136h-48c-4.417969 0-8 3.582031-8 8s3.582031 8 8 8h48c4.417969 0 8-3.582031 8-8s-3.582031-8-8-8zm0 0"/><path d="m128 120h32c4.417969 0 8-3.582031 8-8s-3.582031-8-8-8h-32c-4.417969 0-8 3.582031-8 8s3.582031 8 8 8zm0 0"/><path d="m176 72h-48c-4.417969 0-8 3.582031-8 8s3.582031 8 8 8h48c4.417969 0 8-3.582031 8-8s-3.582031-8-8-8zm0 0"/><path d="m64 448c17.882812-.25 32.191406-14.917969 32-32.800781.207031-14.484375-9.835938-27.101563-24-30.152344v-185.046875c0-4.417969-3.582031-8-8-8s-8 3.582031-8 8v185.015625c-14.175781 3.050781-24.222656 15.6875-24 30.183594-.191406 17.882812 14.117188 32.550781 32 32.800781zm0-48c4.175781-.253906 8.269531 1.238281 11.304688 4.121094 3.035156 2.882812 4.734374 6.894531 4.695312 11.078125 0 8.835937-7.164062 16-16 16s-16-7.164063-16-16c-.039062-4.183594 1.660156-8.195313 4.695312-11.078125 3.035157-2.882813 7.128907-4.375 11.304688-4.121094zm0 0"/></svg>