<?xml version="1.0"?>
<svg xmlns="http://www.w3.org/2000/svg" viewBox="0 0 64 64" width="512" height="512"><g id="Gauge-Manometer-Measurement-Temperature-Danger"><path d="M32,6A26,26,0,1,0,58,32,26.03,26.03,0,0,0,32,6Zm0,50A24,24,0,1,1,56,32,24.028,24.028,0,0,1,32,56Z"/><path d="M53,31H50.949A18.892,18.892,0,0,0,46.1,19.312l1.454-1.454-1.414-1.414L44.688,17.9A18.892,18.892,0,0,0,33,13.051V11H31v2.051A18.892,18.892,0,0,0,19.312,17.9l-1.454-1.454-1.414,1.414L17.9,19.312A18.892,18.892,0,0,0,13.051,31H11v2h2.046a18.86,18.86,0,0,0,4.829,11.711l-1.431,1.431,1.414,1.414,2.119-2.119a1,1,0,0,0,0-1.413,17.047,17.047,0,0,1-3.58-5.281l1.849-.673-.684-1.88-1.855.675a16.868,16.868,0,0,1,.4-10.846l1.783.793.814-1.827-1.787-.795a17.087,17.087,0,0,1,7.807-7.531l.73,1.808,1.854-.749L26.575,15.9a16.748,16.748,0,0,1,10.85,0l-.733,1.815,1.854.749.73-1.808a17.087,17.087,0,0,1,7.807,7.531l-1.787.795.814,1.827,1.783-.793a16.868,16.868,0,0,1,.4,10.846l-1.855-.675-.684,1.88,1.849.673a17.047,17.047,0,0,1-3.58,5.281,1,1,0,0,0,0,1.413l2.119,2.119,1.414-1.414-1.431-1.431A18.86,18.86,0,0,0,50.954,33H53Z"/><path d="M32,35a3,3,0,0,0,3-3,2.951,2.951,0,0,0-.3-1.285l2.008-2.008-1.414-1.414L33.285,29.3A2.951,2.951,0,0,0,32,29a3,3,0,0,0-3,3,2.951,2.951,0,0,0,.3,1.285l-7.008,7.008,1.414,1.414L30.715,34.7A2.951,2.951,0,0,0,32,35Z"/><path d="M38,43H26a1,1,0,0,0-1,1v6a1,1,0,0,0,1,1H38a1,1,0,0,0,1-1V44A1,1,0,0,0,38,43Zm-1,6H27V45H37Z"/><path d="M32,2A30,30,0,1,0,62,32,30.034,30.034,0,0,0,32,2Zm0,58A28,28,0,1,1,60,32,28.032,28.032,0,0,1,32,60Z"/></g></svg>
