<svg id="UV" enable-background="new 0 0 300 300" height="512" viewBox="0 0 300 300" width="512" xmlns="http://www.w3.org/2000/svg"><g><path d="m152.254 198h7.492c16.682 0 30.254-13.57 30.254-30.254v-37.746c0-6.617-5.383-12-12-12s-12 5.383-12 12v37.746c0 3.449-2.805 6.254-6.254 6.254h-7.492c-3.449 0-6.254-2.805-6.254-6.254v-37.746c0-6.617-5.383-12-12-12s-12 5.383-12 12v37.746c0 16.684 13.572 30.254 30.254 30.254zm-22.254-68c0-2.207 1.795-4 4-4s4 1.793 4 4v37.746c0 7.859 6.395 14.254 14.254 14.254h7.492c7.859 0 14.254-6.395 14.254-14.254v-37.746c0-2.207 1.795-4 4-4s4 1.793 4 4v37.746c0 12.27-9.982 22.254-22.254 22.254h-7.492c-12.272 0-22.254-9.984-22.254-22.254z"/><path d="m223.391 191.359c2.084 4.098 6.148 6.641 10.609 6.641s8.525-2.543 10.609-6.641l28-55.059c3.043-5.988.875-13.508-4.832-16.762-2.797-1.605-6.033-1.977-9.096-1.059-3.164.949-5.754 3.137-7.289 6.16l-17.392 34.197-17.391-34.195c-1.537-3.023-4.125-5.211-7.285-6.156-3.068-.926-6.297-.543-9.1 1.051-5.709 3.258-7.877 10.777-4.834 16.766zm-19.202-64.875c.568-.324 1.189-.488 1.814-.488.342 0 .688.051 1.023.152 1.045.312 1.914 1.062 2.451 2.117l20.957 41.207c1.363 2.688 5.766 2.688 7.129 0l20.959-41.207c.535-1.055 1.406-1.809 2.451-2.121.947-.277 1.957-.164 2.836.344 2.023 1.152 2.787 3.984 1.666 6.188l-28 55.059c-1.418 2.797-5.535 2.797-6.953 0l-28-55.059c-1.12-2.203-.356-5.035 1.667-6.192z"/><path d="m270 206h-148v-4c0-2.211-1.791-4-4-4h-4v-8s0-79.76 0-80c0-2.211-1.791-4-4-4h-76v-32h72v19.383c0 2.211 1.791 4 4 4s4-1.789 4-4v-35.703c0-17.469-14.211-31.68-31.68-31.68h-24.64c-17.469 0-31.68 14.211-31.68 31.68v132.32c0 2.211 1.791 4 4 4h76v4h-28c-1.061 0-2.078.422-2.828 1.172l-8 8c-1.562 1.562-1.562 4.094 0 5.656l8 8c.75.75 1.767 1.172 2.828 1.172h28v4h-72v-20c0-2.211-1.791-4-4-4s-4 1.789-4 4v36.32c0 17.469 14.211 31.68 31.68 31.68h24.64c17.469 0 31.68-14.211 31.68-31.68v-20.32h4c2.209 0 4-1.789 4-4v-4h148c2.209 0 4-1.789 4-4s-1.791-4-4-4zm-187.68 60h-24.64c-13.057 0-23.68-10.621-23.68-23.68v-8.32h72v8.32c0 13.059-10.623 23.68-23.68 23.68zm23.68-152v32h-72v-32zm-48.32-80h24.64c13.057 0 23.68 10.621 23.68 23.68v8.32h-72v-8.32c0-13.059 10.623-23.68 23.68-23.68zm-23.68 120h72v32h-72zm80 60h-34.344l-4-4 4-4h34.344z"/></g></svg>