<svg xmlns="http://www.w3.org/2000/svg" enable-background="new 0 0 300 300" height="300" width="300"><rect id="backgroundrect" width="100%" height="100%" x="0" y="0" fill="none" stroke="none"/><g class="currentLayer" style=""><title>Layer 1</title><path d="m68.07627742340595,213.79579389579897 h13.38413618754017 c29.801676438940884,0 54.04747146527501,-23.292573996883185 54.04747146527501,-51.93025303623463 v-64.79008828934066 c0,-11.357919096343114 -9.616498277833522,-20.59770729274858 -21.43748455025121,-20.59770729274858 s-21.43748455025121,9.239788196405465 -21.43748455025121,20.59770729274858 v64.79008828934066 c0,5.920124371057487 -5.0110120136212215,10.734838450737465 -11.172502364772587,10.734838450737465 h-13.38413618754017 c-6.161490351151368,0 -11.172502364772587,-4.81471407967998 -11.172502364772587,-10.734838450737465 v-64.79008828934066 c0,-11.357919096343114 -9.616498277833522,-20.59770729274858 -21.43748455025121,-20.59770729274858 s-21.43748455025121,9.239788196405465 -21.43748455025121,20.59770729274858 v64.79008828934066 c0,28.637679039351443 24.245795026334115,51.93025303623463 54.04747146527501,51.93025303623463 zm-39.75581509844086,-116.72034132557528 c0,-3.788261666258009 3.2066903973084093,-6.8659024309161945 7.145828183417069,-6.8659024309161945 s7.145828183417069,3.077640764658184 7.145828183417069,6.8659024309161945 v64.79008828934066 c0,13.489781801142591 11.42439280823804,24.466643312569854 25.464158731606727,24.466643312569854 h13.38413618754017 c14.039765923368686,0 25.464158731606727,-10.976861511427265 25.464158731606727,-24.466643312569854 v-64.79008828934066 c0,-3.788261666258009 3.2066903973084093,-6.8659024309161945 7.145828183417069,-6.8659024309161945 s7.145828183417069,3.077640764658184 7.145828183417069,6.8659024309161945 v64.79008828934066 c0,21.06115570683542 -17.832414231717298,38.198448174402245 -39.75581509844086,38.198448174402245 h-13.38413618754017 c-21.923400866723565,0 -39.75581509844086,-17.13729246756682 -39.75581509844086,-38.198448174402245 z" id="svg_2" opacity="1" class=""/><path d="m197.6388111786946,202.3966793848703 c3.7229764835602928,7.034117040473641 10.983137917912034,11.399114510928609 18.95252279946792,11.399114510928609 s15.229546315907628,-4.364997470454972 18.95252279946792,-11.399114510928609 l50.020797283919485,-94.50743048595368 c5.436188790534535,-10.278255939081541 1.5631499151224866,-23.186152509203982 -8.63216044556782,-28.771564136754307 c-4.996720357254385,-2.7549433504051226 -10.777695357638795,-3.393472276480328 -16.249613289090416,-1.8177476685850626 c-5.652350093082902,1.6289353517348673 -10.279273841845454,5.384583981446025 -13.021485407231754,10.573489743610939 l-31.07006094149741,58.698316357510265 l-31.068274484451567,-58.694883406294814 c-2.7457844794780097,-5.1889057621649135 -7.369135314148852,-8.94455439187607 -13.014339579048338,-10.56662384118002 c-5.480850216680891,-1.5894564127570991 -11.24932001774432,-0.9320462549968738 -16.256759117273834,1.80401586372323 c-10.19888327478201,5.592277529981239 -14.071922150194062,18.498457624495952 -8.635733359659527,28.778430039185228 zm-34.30354819449365,-111.356355051422 c1.0147076020452248,-0.5561380969042126 2.1240974275207236,-0.8376400965717771 3.240633081179641,-0.8376400965717771 c0.6109683096821599,0 1.2290824475477362,0.08754025599418166 1.8275455579089166,0.2609042923748161 c1.8668476129177098,0.5355403896114633 3.419278785765068,1.8228970954082495 4.378606219388809,3.6337788615623956 l37.438780309967875,70.73081036769089 c2.4349409534993667,4.613886433575682 10.300711326395703,4.613886433575682 12.73565227989507,0 l37.44235322405959,-70.73081036769089 c0.9557545195320338,-1.810881766154147 2.5117586064711013,-3.1051043743818494 4.378606219388809,-3.6406447639933113 c1.6917748224239935,-0.4754637433409479 3.496096438736801,-0.2815019996675648 5.066392182042702,0.5904676090587929 c3.614002603763183,1.9773799001038643 4.978855786795847,6.838438821192528 2.976237438393209,10.62155106062735 l-50.020797283919485,94.50743048595368 c-2.5331960910213507,4.800982274818148 -9.88803974880337,4.800982274818148 -12.421235839824721,0 l-50.020797283919485,-94.50743048595368 c-2.0008318913567797,-3.781395763827093 -0.635978708324121,-8.64245468491576 2.9780238954390637,-10.628416963058267 z" id="svg_3" opacity="1" class=""/></g></svg>